<svg xmlns="http://www.w3.org/2000/svg" width="87.313" height="84.953" viewBox="0 0 87.313 84.953">
  <g id="jquery-vertical" transform="translate(-0.178 -0.028)">
    <path id="Path_7" data-name="Path 7" d="M19.318,13.023c-4.993,7.308-4.371,16.816-.567,24.572l.28.553.189.35c.035.068.076.135.112.2.066.123.132.241.189.362l.364.636.208.35.422.673L20.7,41c.189.3.4.6.612.9l.017.024a1.368,1.368,0,0,1,.095.142c.181.255.378.507.567.756l.21.272.515.645.2.24q.351.424.718.835l.015.015c.009.012.019.019.028.031q.355.4.73.784l.234.24.583.582.238.231q.393.377.8.74l.151.132.725.624.3.244.6.473.323.25.924.676.068.049c.217.151.438.3.659.444l.285.194,1.032.643.285.164.775.442c.142.077.286.151.428.225l.554.284.128.062.227.112.879.414.186.095q.508.226,1.024.434l.25.1.967.365.121.043q.536.189,1.077.359l.26.079a11.3,11.3,0,0,0,1.112.321C63.753,59.163,70.768,39.9,70.768,39.9c-5.891,7.816-16.346,9.876-26.253,7.582-.375-.095-.739-.205-1.106-.316l-.276-.095Q42.6,46.9,42.07,46.72l-.146-.054q-.472-.17-.938-.354l-.265-.106q-.51-.205-1.013-.429l-.2-.091-.854-.406-.246-.121q-.333-.167-.662-.343l-.441-.236q-.4-.219-.792-.453l-.267-.151c-.348-.208-.692-.425-1.032-.643-.095-.061-.185-.127-.279-.189l-.734-.5-.236-.17-.695-.51-.308-.236-.627-.5L32.052,41l-.78-.662a.872.872,0,0,0-.095-.073c-.278-.249-.551-.5-.82-.76l-.231-.227-.59-.588-.231-.236q-.368-.383-.723-.779c-.011-.013-.025-.026-.036-.038q-.375-.418-.733-.851l-.192-.232-.529-.664-.194-.246-.61-.827c-5.5-7.641-7.466-18.179-3.081-26.834M34.817,6.865c-3.61,5.293-3.415,12.375-.6,17.972a23.5,23.5,0,0,0,1.6,2.715,12.807,12.807,0,0,0,1.859,2.363c.26.284.532.567.81.856.07.073.142.142.214.215q.4.4.828.783c.011.009.022.021.034.03q.477.424.974.822l.219.174q.5.39,1.011.752l.028.022c.151.107.307.208.461.31.074.049.144.1.217.147q.37.242.749.468l.106.062.662.378c.077.044.157.083.236.125l.473.244c.024.012.047.022.07.033.318.161.639.312.967.458.07.031.142.06.214.09q.393.17.794.328l.34.127q.362.135.728.258l.329.107a7.806,7.806,0,0,0,1.052.31C67.833,40.16,72.138,25.541,72.138,25.541c-3.88,5.689-11.392,8.406-19.41,6.287q-.532-.141-1.056-.312c-.107-.033-.212-.068-.318-.095q-.371-.123-.738-.259l-.334-.127c-.267-.095-.532-.213-.794-.326-.072-.031-.144-.06-.215-.093q-.493-.216-.973-.46c-.164-.082-.326-.168-.488-.253l-.282-.147q-.312-.171-.617-.354l-.147-.095q-.378-.226-.747-.465c-.076-.049-.149-.095-.225-.153l-.484-.326Q44.8,28,44.3,27.613l-.227-.181A22.9,22.9,0,0,1,36.463,16.38,17.392,17.392,0,0,1,37.787,2.624M47.85,2.264A11.213,11.213,0,0,0,47,12.94,14.871,14.871,0,0,0,55.473,21c.153.059.307.111.473.164l.2.066a5.853,5.853,0,0,0,.663.195C67.107,23.454,69.9,16.05,70.642,14.96c-2.446,3.587-6.556,4.448-11.6,3.2-.4-.1-.836-.246-1.229-.384a14.762,14.762,0,0,1-1.449-.613,14.942,14.942,0,0,1-2.54-1.579C49.3,12.1,46.5,5.446,49.443.028" fill="#fff"/>
    <g id="Group_214" data-name="Group 214">
      <path id="Path_8" data-name="Path 8" d="M25.117,69.993l-.7,2.472.7-2.471ZM28.7,75.36l-.768,0Zm-.189,3.692-4.6.017Zm.964-3.686-.769,0Zm-.55,3.372.8-3.059ZM45.875,64.649l-1.493,7.025Zm-3.842,0L40.9,69.9Z" fill="#fff"/>
      <path id="Path_9" data-name="Path 9" d="M45.61,64.332H42.416a.419.419,0,0,0-.391.316l-2.268,10.5a.419.419,0,0,1-.39.315H37.1c-2.238,0-1.979-1.547-1.512-3.667l.014-.064.271-1.446.117-.6,1.032-5.039a.254.254,0,0,0-.258-.317H33.489a.416.416,0,0,0-.389.316l-1.477,7.007c-.813,3.709-.6,7.245,3.818,7.356l.128,0H42.5a.418.418,0,0,0,.39-.316l2.988-14.05a.251.251,0,0,0-.255-.316ZM58.356,75.5a.257.257,0,0,1,.258.316l-.31,1.517m-.31,1.518.31-1.518Zm-.389.319-5.888.028Z" fill="#fff"/>
      <path id="Path_10" data-name="Path 10" d="M49.81,73.544c0-.166.186-.452.364-.452l-.4-.007c-.189,1.809.035.458.035.458Zm2.2,5.65h-.061Zm6.348-3.7a.257.257,0,0,1,.258.316l-.361,1.764M53.52,79.2h-.013Zm-.784-.006h-.045Zm-.239,0h-.076Zm-.233,0H52.2Zm.437,0h0Z" fill="#fff"/>
      <path id="Path_11" data-name="Path 11" d="M53.508,79.2l-.771,0Zm4.1-.024L53.52,79.2Zm.378-.328.26-1.27-.26,1.271Zm-5.572.347h.019Zm-.468,0h0Zm.243,0h0ZM5.444,73.582l.5-2.2L5.373,73.9l-.066.316.138-.631ZM11.385,64.3H7.875a.425.425,0,0,0-.394.315l-.665,2.93a.246.246,0,0,0,.251.315H10.6A.42.42,0,0,0,11,67.541l.643-2.936a.249.249,0,0,0-.255-.315Zm-.764,4.884-1.04,4.761ZM.427,84.959l2.894.023c-.854,0-2.265-.016-2.895-.024Z" fill="#fff"/>
      <path id="Path_12" data-name="Path 12" d="M6.427,69.181l-.5,2.2Zm3.941-.315H6.83a.425.425,0,0,0-.394.315l-.992,4.4-.138.631L4.361,78.7q-.07.314-.17.621s-.662,1.966-1.771,1.944l-1.1-.021a.425.425,0,0,0-.4.308L.189,84.64a.246.246,0,0,0,.247.318l2.895.024c2.775,0,4.237-1.538,5.175-5.961l2.126-9.829a.25.25,0,0,0-.255-.315ZM60.611,79.014a.254.254,0,0,1-.255-.316l2.66-12.462M64.308,78.7l1.077-5.319Z" fill="#fff"/>
      <path id="Path_13" data-name="Path 13" d="M60.394,78.856a1.359,1.359,0,0,1,.028-.473l1.263-5.916L60.354,78.7a.25.25,0,0,0,.255.316h.323C60.755,79.014,60.415,78.943,60.394,78.856Zm3.7.087a1.721,1.721,0,0,1-.5.071h.323a.416.416,0,0,0,.387-.317l.064-.316a1.163,1.163,0,0,1-.284.561Zm.747-2.905.475-2.348Zm10.5-8.967.146.6a.245.245,0,0,1-.249.315" fill="#fff"/>
      <path id="Path_14" data-name="Path 14" d="M64.372,78.382l.473-2.344ZM75.2,66.44l.145.62Zm-9.878,7.251.13-.628.508-2.377-.575,2.692-.063.312Zm-2.262-7.659-.111.52-1.263,5.916,1.331-6.231.043-.2Z" fill="#fff"/>
      <path id="Path_15" data-name="Path 15" d="M75.491,67.676l-.146-.6-.217-.945c-.287-1.115-1.13-1.761-2.962-1.761l-8.43-.006a.416.416,0,0,0-.389.316l-.13.617-.189.933L60.433,78.373a1.353,1.353,0,0,0-.028.473c.022.095.362.158.539.158h2.665a1.694,1.694,0,0,0,.5-.071c.1-.039.24-.378.284-.561l1.011-5L66.484,68.3a.419.419,0,0,1,.389-.315l8.386,0a.245.245,0,0,0,.249-.315Zm10.8-5.475-.645,0H82.957a.69.69,0,0,0-.5.267l-5.935,8.695c-.1.146-.215.125-.255-.047L75.826,69.2a.425.425,0,0,0-.394-.315H71.616a.23.23,0,0,0-.234.31l1.7,5.99a1.432,1.432,0,0,1,.009.624l-.756,2.9a.236.236,0,0,0,.243.313h3.78a.44.44,0,0,0,.4-.312l.756-2.9a1.928,1.928,0,0,1,.274-.571l9.646-12.79c.107-.142.049-.257-.129-.255L86.3,62.2ZM55.972,69.7a.39.39,0,0,1-.378.331H50.755a.208.208,0,0,1-.227-.255l0-.026.022-.082a3.04,3.04,0,0,1,3.172-2.035c1.991,0,2.38.973,2.245,2.067Zm-1.42-5.584c-6.209,0-7.681,3.769-8.506,7.573-.826,3.878-.754,7.5,5.671,7.5h1.019l.784,0,4.088-.025a.416.416,0,0,0,.385-.317l.621-3.036a.253.253,0,0,0-.258-.316H52.58c-2.3,0-2.98-.611-2.728-2.405h9.234a.37.37,0,0,0,.342-.238.39.39,0,0,0,.023-.08c1.37-5.17.977-8.654-4.9-8.654ZM25.2,69.681l-.087.309-.7,2.472-.7,2.47a.454.454,0,0,1-.41.31H19.62c-2.8,0-3.481-2.19-2.8-5.419.68-3.3,2.018-5.357,4.773-5.565,3.765-.284,4.518,2.365,3.61,5.421Zm2.531,5.373a41.532,41.532,0,0,0,2.136-6.666c.539-3.267-1.1-8-7.414-8-6.282,0-9.01,4.523-10.05,9.451-1.04,4.952.323,9.3,6.568,9.262l9.532-.035a.444.444,0,0,0,.4-.314l.8-3.06a.236.236,0,0,0-.241-.314l-1.538-.009a.2.2,0,0,1-.219-.227.351.351,0,0,1,.019-.072Z" fill="#fff"/>
      <path id="Path_16" data-name="Path 16" d="M58.832,72.228a.212.212,0,1,1-.212-.212A.211.211,0,0,1,58.832,72.228Z" fill="#fff"/>
    </g>
  </g>
</svg>
